<?xml version="1.0" standalone="no"?><!DOCTYPE svg PUBLIC "-//W3C//DTD SVG 1.1//EN" "http://www.w3.org/Graphics/SVG/1.1/DTD/svg11.dtd"><svg t="1700895027812" class="icon" viewBox="0 0 1024 1024" version="1.1" xmlns="http://www.w3.org/2000/svg" p-id="3600" xmlns:xlink="http://www.w3.org/1999/xlink" width="200" height="200"><path d="M660.736 96l219.264 232.864V848A80 80 0 0 1 800 928H224a80 80 0 0 1-80-80v-672A80 80 0 0 1 224 96h436.736z m-71.968 96H240v640h544V406.144h-115.2a80 80 0 0 1-80-80L588.768 192zM384 288a32 32 0 0 1 32 32v416a32 32 0 0 1-32 32h-32a32 32 0 0 1-32-32V320a32 32 0 0 1 32-32h32z m288 192a32 32 0 0 1 32 32v224a32 32 0 0 1-32 32h-32a32 32 0 0 1-32-32v-224a32 32 0 0 1 32-32h32z m-144-80a32 32 0 0 1 32 32V736a32 32 0 0 1-32 32h-32a32 32 0 0 1-32-32v-304a32 32 0 0 1 32-32h32z m156.768-138.4l0.032 48.544 45.664-0.032-45.696-48.512z" fill="#333333" p-id="3601"></path></svg>