<?xml version="1.0" standalone="no"?><!DOCTYPE svg PUBLIC "-//W3C//DTD SVG 1.1//EN" "http://www.w3.org/Graphics/SVG/1.1/DTD/svg11.dtd"><svg t="1698991538611" class="icon" viewBox="0 0 1024 1024" version="1.1" xmlns="http://www.w3.org/2000/svg" p-id="2580" xmlns:xlink="http://www.w3.org/1999/xlink" width="200" height="200"><path d="M992 224 32 224C14.336 224 0 209.664 0 192s14.336-32 32-32l960 0c17.696 0 32 14.336 32 32S1009.696 224 992 224zM992 544 32 544c-17.664 0-32-14.304-32-32s14.336-32 32-32l960 0c17.696 0 32 14.304 32 32S1009.696 544 992 544zM992 864 32 864c-17.664 0-32-14.304-32-32s14.336-32 32-32l960 0c17.696 0 32 14.304 32 32S1009.696 864 992 864z" fill="#272636" p-id="2581"></path></svg>