<?xml version="1.0" standalone="no"?><!DOCTYPE svg PUBLIC "-//W3C//DTD SVG 1.1//EN" "http://www.w3.org/Graphics/SVG/1.1/DTD/svg11.dtd"><svg t="1700895210195" class="icon" viewBox="0 0 1024 1024" version="1.1" xmlns="http://www.w3.org/2000/svg" p-id="5675" xmlns:xlink="http://www.w3.org/1999/xlink" width="200" height="200"><path d="M1028.83555555 221.31674074a73.75075555 73.75075555 0 0 0-29.92355555-48.92444444l-72.59022222-53.13422222c-13.65333333-10.24-30.37866667-15.36-47.33155556-14.67733334-19.91111111-48.24177778-67.35644445-82.37511111-122.76622222-82.71644444H144.896c-73.15911111 0.56888889-132.32355555 59.73333333-132.89244445 132.89244444v708.72177777c0.56888889 73.15911111 59.73333333 132.32355555 132.89244445 132.89244445h611.328c73.15911111-0.56888889 132.32355555-59.73333333 132.89244445-132.89244445V447.73451851L1014.84088888 276.95407408c11.94666667-15.92888889 16.95288889-35.95377778 13.99466667-55.63733334zM835.86844445 863.47851851c0.11377778 21.16266667-8.30577778 41.52888889-23.21066667 56.43377779-15.01866667 15.01866667-35.27111111 23.32444445-56.43377778 23.21066666H144.896c-21.16266667 0.11377778-41.52888889-8.30577778-56.43377778-23.21066666-15.01866667-15.01866667-23.32444445-35.27111111-23.21066667-56.43377779v-708.83555555c-0.11377778-21.16266667 8.30577778-41.52888889 23.21066667-56.43377778 15.01866667-15.01866667 35.27111111-23.32444445 56.43377778-23.21066667h611.328c21.16266667-0.11377778 41.52888889 8.30577778 56.43377778 23.21066667 7.73688889 7.73688889 13.76711111 17.06666667 17.74933333 27.07911112-3.18577778 3.072-6.03022222 6.37155555-8.64711111 9.89866666L460.288 626.0242963c-10.58133333 12.40177778-15.92888889 28.33066667-19.456 46.08l-19.456 122.31111111c-3.98222222 21.73155555 5.00622222 43.80444445 22.98311111 56.66133333 12.40177778 8.64711111 27.53422222 12.40177778 42.55288889 10.58133334 5.34755555-1.82044445 12.40177778-3.52711111 15.92888888-7.05422223l111.616-54.95466667c15.58755555-7.05422222 29.01333333-17.97688889 39.02577779-31.85777777L835.98222222 519.98340741v343.4951111zM610.92977778 735.81985185c-5.23377778 6.71288889-11.83288889 12.17422222-19.456 15.92888889L479.85777778 806.70340741c-0.68266667 0.79644445-1.59288889 1.36533333-2.6168889 1.36533333s-2.048-0.45511111-2.61688888-1.36533333c-1.36533333-1.36533333-2.048-3.41333333-1.82044445-5.34755556l19.456-122.31111111c1.70666667-8.41955555 5.34755555-16.27022222 10.58133333-22.98311111l289.792-392.07822222 107.40622223 79.18933333-289.10933333 392.64711111zM972.288 245.0962963L931.55555555 300.3922963l-107.40622222-79.07555556 40.04977778-54.272c2.95822222-5.12 8.30577778-8.41955555 14.22222222-8.87466666 5.34755555-1.82044445 10.58133333 0 15.92888889 1.82044443l72.704 54.95466667c4.89244445 3.18577778 8.192 8.192 9.216 13.8808889 1.024 5.68888889-0.45511111 11.60533333-3.98222222 16.27022222z" fill="#000333" p-id="5676"></path><path d="M173.22666667 230.87407408h407.552c9.44355555 0 18.31822222-5.12 22.98311111-13.312 4.77866667-8.192 4.77866667-18.31822222 0-26.624-4.77866667-8.192-13.53955555-13.312-22.98311111-13.312H173.22666667c-9.44355555 0-18.31822222 5.00622222-22.98311112 13.312-4.77866667 8.192-4.77866667 18.31822222 0 26.624 4.66488889 8.192 13.42577778 13.312 22.98311112 13.312zM449.59288888 386.74962963H173.22666667c-14.67733333 0-26.624 11.94666667-26.624 26.624 0 14.67733333 11.94666667 26.624 26.624 26.624h276.36622221c14.56355555-0.34133333 26.16888889-12.06044445 26.624-26.624 0.11377778-7.05422222-2.61688889-13.88088889-7.6231111-18.88711112-5.00622222-5.12-11.83288889-7.85066667-19.0008889-7.73688888zM323.86844445 594.16651851H173.22666667c-9.44355555 0-18.31822222 5.00622222-22.98311112 13.312-4.77866667 8.192-4.77866667 18.31822222 0 26.624 4.77866667 8.192 13.53955555 13.312 22.98311112 13.312h150.64177778c9.44355555 0 18.31822222-5.00622222 22.9831111-13.312 4.77866667-8.192 4.77866667-18.31822222 0-26.624-4.77866667-8.30577778-13.53955555-13.42577778-22.9831111-13.312z" fill="#000333" p-id="5677"></path></svg>